<mxfile host="app.diagrams.net" modified="2022-12-09T06:34:06.949Z" agent="5.0 (Windows NT 10.0; Win64; x64) AppleWebKit/537.36 (KHTML, like Gecko) Chrome/108.0.0.0 Safari/537.36" version="20.6.0" etag="fiIplI5snwfMPtV3tGSC" type="github">
  <diagram id="6JDCqNisvBgAfbWOYaAh" name="Trang-1">
    <mxGraphModel dx="1887" dy="980" grid="1" gridSize="10" guides="1" tooltips="1" connect="1" arrows="1" fold="1" page="1" pageScale="1" pageWidth="3300" pageHeight="4681" math="0" shadow="0">
      <root>
        <mxCell id="0" />
        <mxCell id="1" parent="0" />
        <mxCell id="czRX9-merr9mvdvp56qM-28" style="edgeStyle=none;rounded=0;orthogonalLoop=1;jettySize=auto;html=1;exitX=1;exitY=0.5;exitDx=0;exitDy=0;" edge="1" parent="1" source="czRX9-merr9mvdvp56qM-1">
          <mxGeometry relative="1" as="geometry">
            <mxPoint x="850" y="380" as="targetPoint" />
          </mxGeometry>
        </mxCell>
        <mxCell id="czRX9-merr9mvdvp56qM-32" style="rounded=0;orthogonalLoop=1;jettySize=auto;html=1;exitX=0.5;exitY=0;exitDx=0;exitDy=0;" edge="1" parent="1" source="czRX9-merr9mvdvp56qM-1" target="czRX9-merr9mvdvp56qM-2">
          <mxGeometry relative="1" as="geometry" />
        </mxCell>
        <mxCell id="czRX9-merr9mvdvp56qM-33" style="edgeStyle=none;rounded=0;orthogonalLoop=1;jettySize=auto;html=1;exitX=0.5;exitY=0;exitDx=0;exitDy=0;entryX=0.5;entryY=1;entryDx=0;entryDy=0;" edge="1" parent="1" source="czRX9-merr9mvdvp56qM-1" target="czRX9-merr9mvdvp56qM-5">
          <mxGeometry relative="1" as="geometry" />
        </mxCell>
        <mxCell id="czRX9-merr9mvdvp56qM-34" style="edgeStyle=none;rounded=0;orthogonalLoop=1;jettySize=auto;html=1;exitX=0.5;exitY=0;exitDx=0;exitDy=0;" edge="1" parent="1" source="czRX9-merr9mvdvp56qM-1" target="czRX9-merr9mvdvp56qM-7">
          <mxGeometry relative="1" as="geometry" />
        </mxCell>
        <mxCell id="czRX9-merr9mvdvp56qM-35" style="edgeStyle=none;rounded=0;orthogonalLoop=1;jettySize=auto;html=1;exitX=0.5;exitY=0;exitDx=0;exitDy=0;" edge="1" parent="1" source="czRX9-merr9mvdvp56qM-1" target="czRX9-merr9mvdvp56qM-6">
          <mxGeometry relative="1" as="geometry" />
        </mxCell>
        <mxCell id="czRX9-merr9mvdvp56qM-1" value="Công ty" style="rounded=1;whiteSpace=wrap;html=1;" vertex="1" parent="1">
          <mxGeometry x="340" y="350" width="120" height="60" as="geometry" />
        </mxCell>
        <mxCell id="czRX9-merr9mvdvp56qM-2" value="Địa chỉ" style="ellipse;whiteSpace=wrap;html=1;" vertex="1" parent="1">
          <mxGeometry x="260" y="170" width="120" height="80" as="geometry" />
        </mxCell>
        <mxCell id="czRX9-merr9mvdvp56qM-29" style="edgeStyle=none;rounded=0;orthogonalLoop=1;jettySize=auto;html=1;exitX=1;exitY=0.5;exitDx=0;exitDy=0;entryX=0;entryY=0.5;entryDx=0;entryDy=0;" edge="1" parent="1" source="czRX9-merr9mvdvp56qM-3" target="czRX9-merr9mvdvp56qM-4">
          <mxGeometry relative="1" as="geometry" />
        </mxCell>
        <mxCell id="czRX9-merr9mvdvp56qM-36" style="edgeStyle=none;rounded=0;orthogonalLoop=1;jettySize=auto;html=1;exitX=0.5;exitY=0;exitDx=0;exitDy=0;" edge="1" parent="1" source="czRX9-merr9mvdvp56qM-3" target="czRX9-merr9mvdvp56qM-10">
          <mxGeometry relative="1" as="geometry" />
        </mxCell>
        <mxCell id="czRX9-merr9mvdvp56qM-37" style="edgeStyle=none;rounded=0;orthogonalLoop=1;jettySize=auto;html=1;exitX=0.5;exitY=0;exitDx=0;exitDy=0;entryX=0;entryY=1;entryDx=0;entryDy=0;" edge="1" parent="1" source="czRX9-merr9mvdvp56qM-3" target="czRX9-merr9mvdvp56qM-11">
          <mxGeometry relative="1" as="geometry" />
        </mxCell>
        <mxCell id="czRX9-merr9mvdvp56qM-38" style="edgeStyle=none;rounded=0;orthogonalLoop=1;jettySize=auto;html=1;exitX=0.5;exitY=0;exitDx=0;exitDy=0;entryX=0.04;entryY=0.824;entryDx=0;entryDy=0;entryPerimeter=0;" edge="1" parent="1" source="czRX9-merr9mvdvp56qM-3" target="czRX9-merr9mvdvp56qM-12">
          <mxGeometry relative="1" as="geometry" />
        </mxCell>
        <mxCell id="czRX9-merr9mvdvp56qM-39" style="edgeStyle=none;rounded=0;orthogonalLoop=1;jettySize=auto;html=1;exitX=0.5;exitY=0;exitDx=0;exitDy=0;entryX=1;entryY=1;entryDx=0;entryDy=0;" edge="1" parent="1" source="czRX9-merr9mvdvp56qM-3" target="czRX9-merr9mvdvp56qM-9">
          <mxGeometry relative="1" as="geometry" />
        </mxCell>
        <mxCell id="czRX9-merr9mvdvp56qM-40" style="edgeStyle=none;rounded=0;orthogonalLoop=1;jettySize=auto;html=1;exitX=0.5;exitY=0;exitDx=0;exitDy=0;entryX=1;entryY=1;entryDx=0;entryDy=0;" edge="1" parent="1" source="czRX9-merr9mvdvp56qM-3" target="czRX9-merr9mvdvp56qM-8">
          <mxGeometry relative="1" as="geometry" />
        </mxCell>
        <mxCell id="czRX9-merr9mvdvp56qM-3" value="Nhân viên&amp;nbsp;" style="rounded=1;whiteSpace=wrap;html=1;" vertex="1" parent="1">
          <mxGeometry x="840" y="350" width="120" height="60" as="geometry" />
        </mxCell>
        <mxCell id="czRX9-merr9mvdvp56qM-41" style="edgeStyle=none;rounded=0;orthogonalLoop=1;jettySize=auto;html=1;exitX=0.5;exitY=0;exitDx=0;exitDy=0;entryX=0.231;entryY=0.909;entryDx=0;entryDy=0;entryPerimeter=0;" edge="1" parent="1" source="czRX9-merr9mvdvp56qM-4" target="czRX9-merr9mvdvp56qM-17">
          <mxGeometry relative="1" as="geometry" />
        </mxCell>
        <mxCell id="czRX9-merr9mvdvp56qM-42" style="edgeStyle=none;rounded=0;orthogonalLoop=1;jettySize=auto;html=1;exitX=0.5;exitY=0;exitDx=0;exitDy=0;entryX=0.333;entryY=1;entryDx=0;entryDy=0;entryPerimeter=0;" edge="1" parent="1" source="czRX9-merr9mvdvp56qM-4" target="czRX9-merr9mvdvp56qM-14">
          <mxGeometry relative="1" as="geometry" />
        </mxCell>
        <mxCell id="czRX9-merr9mvdvp56qM-43" style="edgeStyle=none;rounded=0;orthogonalLoop=1;jettySize=auto;html=1;exitX=0.5;exitY=0;exitDx=0;exitDy=0;entryX=0.711;entryY=1.004;entryDx=0;entryDy=0;entryPerimeter=0;" edge="1" parent="1" source="czRX9-merr9mvdvp56qM-4" target="czRX9-merr9mvdvp56qM-15">
          <mxGeometry relative="1" as="geometry" />
        </mxCell>
        <mxCell id="czRX9-merr9mvdvp56qM-44" style="edgeStyle=none;rounded=0;orthogonalLoop=1;jettySize=auto;html=1;exitX=0.5;exitY=0;exitDx=0;exitDy=0;entryX=0;entryY=1;entryDx=0;entryDy=0;" edge="1" parent="1" source="czRX9-merr9mvdvp56qM-4" target="czRX9-merr9mvdvp56qM-16">
          <mxGeometry relative="1" as="geometry" />
        </mxCell>
        <mxCell id="czRX9-merr9mvdvp56qM-45" style="edgeStyle=none;rounded=0;orthogonalLoop=1;jettySize=auto;html=1;exitX=0.5;exitY=0;exitDx=0;exitDy=0;entryX=0;entryY=1;entryDx=0;entryDy=0;" edge="1" parent="1" source="czRX9-merr9mvdvp56qM-4" target="czRX9-merr9mvdvp56qM-18">
          <mxGeometry relative="1" as="geometry" />
        </mxCell>
        <mxCell id="czRX9-merr9mvdvp56qM-4" value="Sản phẩm" style="rounded=1;whiteSpace=wrap;html=1;" vertex="1" parent="1">
          <mxGeometry x="1400" y="350" width="120" height="60" as="geometry" />
        </mxCell>
        <mxCell id="czRX9-merr9mvdvp56qM-5" value="Tên_NSX" style="ellipse;whiteSpace=wrap;html=1;" vertex="1" parent="1">
          <mxGeometry x="400" y="170" width="120" height="80" as="geometry" />
        </mxCell>
        <mxCell id="czRX9-merr9mvdvp56qM-6" value="Mã_Sx" style="ellipse;whiteSpace=wrap;html=1;" vertex="1" parent="1">
          <mxGeometry x="460" y="250" width="120" height="80" as="geometry" />
        </mxCell>
        <mxCell id="czRX9-merr9mvdvp56qM-7" value="Sdt" style="ellipse;whiteSpace=wrap;html=1;" vertex="1" parent="1">
          <mxGeometry x="180" y="250" width="120" height="80" as="geometry" />
        </mxCell>
        <mxCell id="czRX9-merr9mvdvp56qM-8" value="Mã_NV" style="ellipse;whiteSpace=wrap;html=1;" vertex="1" parent="1">
          <mxGeometry x="650" y="230" width="120" height="80" as="geometry" />
        </mxCell>
        <mxCell id="czRX9-merr9mvdvp56qM-9" value="Lương" style="ellipse;whiteSpace=wrap;html=1;" vertex="1" parent="1">
          <mxGeometry x="720" y="160" width="120" height="80" as="geometry" />
        </mxCell>
        <mxCell id="czRX9-merr9mvdvp56qM-10" value="Họ_Tên" style="ellipse;whiteSpace=wrap;html=1;" vertex="1" parent="1">
          <mxGeometry x="840" y="140" width="120" height="80" as="geometry" />
        </mxCell>
        <mxCell id="czRX9-merr9mvdvp56qM-11" value="Địa chỉ" style="ellipse;whiteSpace=wrap;html=1;" vertex="1" parent="1">
          <mxGeometry x="970" y="170" width="120" height="80" as="geometry" />
        </mxCell>
        <mxCell id="czRX9-merr9mvdvp56qM-12" value="Liên hệ" style="ellipse;whiteSpace=wrap;html=1;" vertex="1" parent="1">
          <mxGeometry x="1040" y="230" width="120" height="80" as="geometry" />
        </mxCell>
        <mxCell id="czRX9-merr9mvdvp56qM-14" value="Tên_SP" style="ellipse;whiteSpace=wrap;html=1;" vertex="1" parent="1">
          <mxGeometry x="1350" y="140" width="120" height="80" as="geometry" />
        </mxCell>
        <mxCell id="czRX9-merr9mvdvp56qM-15" value="Hình ảnh" style="ellipse;whiteSpace=wrap;html=1;" vertex="1" parent="1">
          <mxGeometry x="1240" y="190" width="120" height="80" as="geometry" />
        </mxCell>
        <mxCell id="czRX9-merr9mvdvp56qM-16" value="MÃ_SP" style="ellipse;whiteSpace=wrap;html=1;" vertex="1" parent="1">
          <mxGeometry x="1610" y="160" width="120" height="80" as="geometry" />
        </mxCell>
        <mxCell id="czRX9-merr9mvdvp56qM-17" value="MÃ_NSX" style="ellipse;whiteSpace=wrap;html=1;" vertex="1" parent="1">
          <mxGeometry x="1480" y="140" width="120" height="80" as="geometry" />
        </mxCell>
        <mxCell id="czRX9-merr9mvdvp56qM-18" value="TRạng thái" style="ellipse;whiteSpace=wrap;html=1;" vertex="1" parent="1">
          <mxGeometry x="1690" y="220" width="120" height="80" as="geometry" />
        </mxCell>
        <mxCell id="czRX9-merr9mvdvp56qM-46" style="edgeStyle=none;rounded=0;orthogonalLoop=1;jettySize=auto;html=1;exitX=0.5;exitY=1;exitDx=0;exitDy=0;entryX=0.5;entryY=0;entryDx=0;entryDy=0;" edge="1" parent="1" source="czRX9-merr9mvdvp56qM-19" target="czRX9-merr9mvdvp56qM-20">
          <mxGeometry relative="1" as="geometry" />
        </mxCell>
        <mxCell id="czRX9-merr9mvdvp56qM-47" style="edgeStyle=none;rounded=0;orthogonalLoop=1;jettySize=auto;html=1;exitX=0.5;exitY=1;exitDx=0;exitDy=0;" edge="1" parent="1" source="czRX9-merr9mvdvp56qM-19" target="czRX9-merr9mvdvp56qM-27">
          <mxGeometry relative="1" as="geometry" />
        </mxCell>
        <mxCell id="czRX9-merr9mvdvp56qM-48" style="edgeStyle=none;rounded=0;orthogonalLoop=1;jettySize=auto;html=1;exitX=0.5;exitY=1;exitDx=0;exitDy=0;" edge="1" parent="1" source="czRX9-merr9mvdvp56qM-19" target="czRX9-merr9mvdvp56qM-25">
          <mxGeometry relative="1" as="geometry" />
        </mxCell>
        <mxCell id="czRX9-merr9mvdvp56qM-49" style="edgeStyle=none;rounded=0;orthogonalLoop=1;jettySize=auto;html=1;exitX=0.5;exitY=1;exitDx=0;exitDy=0;entryX=0.978;entryY=0.242;entryDx=0;entryDy=0;entryPerimeter=0;" edge="1" parent="1" source="czRX9-merr9mvdvp56qM-19" target="czRX9-merr9mvdvp56qM-24">
          <mxGeometry relative="1" as="geometry" />
        </mxCell>
        <mxCell id="czRX9-merr9mvdvp56qM-50" style="edgeStyle=none;rounded=0;orthogonalLoop=1;jettySize=auto;html=1;exitX=0.5;exitY=1;exitDx=0;exitDy=0;entryX=0.5;entryY=0;entryDx=0;entryDy=0;" edge="1" parent="1" source="czRX9-merr9mvdvp56qM-19" target="czRX9-merr9mvdvp56qM-22">
          <mxGeometry relative="1" as="geometry" />
        </mxCell>
        <mxCell id="czRX9-merr9mvdvp56qM-51" style="edgeStyle=none;rounded=0;orthogonalLoop=1;jettySize=auto;html=1;exitX=0.5;exitY=1;exitDx=0;exitDy=0;" edge="1" parent="1" source="czRX9-merr9mvdvp56qM-19" target="czRX9-merr9mvdvp56qM-26">
          <mxGeometry relative="1" as="geometry" />
        </mxCell>
        <mxCell id="czRX9-merr9mvdvp56qM-52" style="edgeStyle=none;rounded=0;orthogonalLoop=1;jettySize=auto;html=1;exitX=0.5;exitY=1;exitDx=0;exitDy=0;entryX=0.029;entryY=0.354;entryDx=0;entryDy=0;entryPerimeter=0;" edge="1" parent="1" source="czRX9-merr9mvdvp56qM-19" target="czRX9-merr9mvdvp56qM-23">
          <mxGeometry relative="1" as="geometry" />
        </mxCell>
        <mxCell id="czRX9-merr9mvdvp56qM-19" value="Khách hàng" style="rounded=1;whiteSpace=wrap;html=1;" vertex="1" parent="1">
          <mxGeometry x="1370" y="790" width="120" height="60" as="geometry" />
        </mxCell>
        <mxCell id="czRX9-merr9mvdvp56qM-20" value="ĐỊA CHỈ" style="ellipse;whiteSpace=wrap;html=1;" vertex="1" parent="1">
          <mxGeometry x="1370" y="980" width="120" height="80" as="geometry" />
        </mxCell>
        <mxCell id="czRX9-merr9mvdvp56qM-22" value="SỐ_CMT" style="ellipse;whiteSpace=wrap;html=1;" vertex="1" parent="1">
          <mxGeometry x="1480" y="970" width="120" height="80" as="geometry" />
        </mxCell>
        <mxCell id="czRX9-merr9mvdvp56qM-23" value="HỌ TÊN" style="ellipse;whiteSpace=wrap;html=1;" vertex="1" parent="1">
          <mxGeometry x="1580" y="930" width="120" height="80" as="geometry" />
        </mxCell>
        <mxCell id="czRX9-merr9mvdvp56qM-24" value="NGÀY SINH" style="ellipse;whiteSpace=wrap;html=1;" vertex="1" parent="1">
          <mxGeometry x="1160" y="940" width="120" height="80" as="geometry" />
        </mxCell>
        <mxCell id="czRX9-merr9mvdvp56qM-25" value="SDT" style="ellipse;whiteSpace=wrap;html=1;" vertex="1" parent="1">
          <mxGeometry x="1140" y="870" width="120" height="80" as="geometry" />
        </mxCell>
        <mxCell id="czRX9-merr9mvdvp56qM-26" value="GIỚI TÍNH" style="ellipse;whiteSpace=wrap;html=1;" vertex="1" parent="1">
          <mxGeometry x="1610" y="870" width="120" height="80" as="geometry" />
        </mxCell>
        <mxCell id="czRX9-merr9mvdvp56qM-27" value="MÃ_KH" style="ellipse;whiteSpace=wrap;html=1;" vertex="1" parent="1">
          <mxGeometry x="1260" y="970" width="120" height="80" as="geometry" />
        </mxCell>
        <mxCell id="czRX9-merr9mvdvp56qM-58" style="edgeStyle=none;rounded=0;orthogonalLoop=1;jettySize=auto;html=1;exitX=0.5;exitY=1;exitDx=0;exitDy=0;entryX=0.5;entryY=0;entryDx=0;entryDy=0;" edge="1" parent="1" source="czRX9-merr9mvdvp56qM-53" target="czRX9-merr9mvdvp56qM-54">
          <mxGeometry relative="1" as="geometry" />
        </mxCell>
        <mxCell id="czRX9-merr9mvdvp56qM-59" style="edgeStyle=none;rounded=0;orthogonalLoop=1;jettySize=auto;html=1;exitX=0.5;exitY=1;exitDx=0;exitDy=0;entryX=0.741;entryY=-0.019;entryDx=0;entryDy=0;entryPerimeter=0;" edge="1" parent="1" source="czRX9-merr9mvdvp56qM-53" target="czRX9-merr9mvdvp56qM-56">
          <mxGeometry relative="1" as="geometry" />
        </mxCell>
        <mxCell id="czRX9-merr9mvdvp56qM-60" style="edgeStyle=none;rounded=0;orthogonalLoop=1;jettySize=auto;html=1;exitX=0.5;exitY=1;exitDx=0;exitDy=0;entryX=0.5;entryY=0;entryDx=0;entryDy=0;" edge="1" parent="1" source="czRX9-merr9mvdvp56qM-53" target="czRX9-merr9mvdvp56qM-55">
          <mxGeometry relative="1" as="geometry" />
        </mxCell>
        <mxCell id="czRX9-merr9mvdvp56qM-63" style="edgeStyle=none;rounded=0;orthogonalLoop=1;jettySize=auto;html=1;exitX=0.5;exitY=0;exitDx=0;exitDy=0;entryX=0.5;entryY=1;entryDx=0;entryDy=0;" edge="1" parent="1" source="czRX9-merr9mvdvp56qM-53" target="czRX9-merr9mvdvp56qM-1">
          <mxGeometry relative="1" as="geometry" />
        </mxCell>
        <mxCell id="czRX9-merr9mvdvp56qM-53" value="DỰ ÁN" style="rounded=1;whiteSpace=wrap;html=1;" vertex="1" parent="1">
          <mxGeometry x="480" y="730" width="120" height="60" as="geometry" />
        </mxCell>
        <mxCell id="czRX9-merr9mvdvp56qM-54" value="MÃ SỐ" style="ellipse;whiteSpace=wrap;html=1;" vertex="1" parent="1">
          <mxGeometry x="490" y="870" width="120" height="80" as="geometry" />
        </mxCell>
        <mxCell id="czRX9-merr9mvdvp56qM-55" value="ĐỊA ĐIỂM" style="ellipse;whiteSpace=wrap;html=1;" vertex="1" parent="1">
          <mxGeometry x="620" y="850" width="120" height="80" as="geometry" />
        </mxCell>
        <mxCell id="czRX9-merr9mvdvp56qM-56" value="TÊN" style="ellipse;whiteSpace=wrap;html=1;" vertex="1" parent="1">
          <mxGeometry x="350" y="850" width="120" height="80" as="geometry" />
        </mxCell>
        <mxCell id="czRX9-merr9mvdvp56qM-61" value="Quản lý" style="rhombus;whiteSpace=wrap;html=1;" vertex="1" parent="1">
          <mxGeometry x="610" y="350" width="80" height="80" as="geometry" />
        </mxCell>
        <mxCell id="czRX9-merr9mvdvp56qM-62" value="" style="endArrow=none;html=1;rounded=0;exitX=0.5;exitY=1;exitDx=0;exitDy=0;entryX=0.5;entryY=0;entryDx=0;entryDy=0;" edge="1" parent="1" source="czRX9-merr9mvdvp56qM-3" target="czRX9-merr9mvdvp56qM-19">
          <mxGeometry width="50" height="50" relative="1" as="geometry">
            <mxPoint x="910" y="470" as="sourcePoint" />
            <mxPoint x="1430" y="780" as="targetPoint" />
          </mxGeometry>
        </mxCell>
        <mxCell id="czRX9-merr9mvdvp56qM-64" value="" style="rhombus;whiteSpace=wrap;html=1;" vertex="1" parent="1">
          <mxGeometry x="1130" y="580" width="80" height="80" as="geometry" />
        </mxCell>
      </root>
    </mxGraphModel>
  </diagram>
</mxfile>
